<?xml version="1.0" encoding="UTF-8"?>
<svg data-name="Layer 1" viewBox="0 0 321.07 322.9" xmlns="http://www.w3.org/2000/svg">
<metadata>
</metadata>
<defs>
<style>.cls-1 {
        fill: #c96048;
      }

      .cls-1, .cls-2, .cls-3, .cls-4, .cls-5, .cls-6, .cls-7, .cls-8, .cls-9, .cls-10, .cls-11, .cls-12, .cls-13, .cls-14 {
        stroke-width: 0px;
      }

      .cls-2 {
        fill: #a3332c;
      }

      .cls-3 {
        fill: #b24436;
      }

      .cls-4 {
        fill: #902c24;
      }

      .cls-5 {
        fill: url(#a);
      }

      .cls-6 {
        fill: #000;
      }

      .cls-7 {
        fill: #090909;
      }

      .cls-8 {
        fill: #d5d5d4;
      }

      .cls-9 {
        fill: #c6918c;
      }

      .cls-10 {
        fill: #481215;
      }

      .cls-11 {
        fill: #201010;
      }

      .cls-12 {
        fill: #0a0a0a;
      }

      .cls-13 {
        fill: #662725;
      }

      .cls-14 {
        fill: #020202;
      }</style>
<linearGradient id="a" x1="175.39" x2="143.1" y1="153.79" y2="181.77" gradientUnits="userSpaceOnUse">
<stop offset=".31"/>
<stop offset="1"/>
</linearGradient>
</defs>
<path class="cls-1" d="M169.67,3.02c6.49,2.78,8.27,12.13,16.16,4.09,7.83,11.81,4.92,7.41,9.29,5.2,8.42-4.25,10.52,2.43,11.15,2.6.31.08,3.31-2.39,5.94-1.86,1.33.27,3.23,3.53,5.2,4.09,1.53.43,4.92-.71,12.26,3.72,3.69,2.23,6.29,5.4,9.1,8.54.6.67.82,1.63,1.49,2.23,1.98,1.77,2.09.87,3.16,1.49,11.09,6.42,13.99,12.17,14.86,12.63.23.12.94-.63,5.02,1.11.66.28,1.5,1.12,2.23,1.49,2.02,3.76.61,5.67.74,6.13.16.55,4.75,3.32,5.57,9.66,1.65,12.74-5.94,17.43-5.2,24.33-.33.84-.48,1.39-.74,2.23-1.88,6.12-4.75,22.38-7.43,32.32-.08-22.81-17.02-24.96-21.92-31.76-2.58-3.59-2.28-8.21-5.2-11.89-2.03-2.55-6.97-4.9-8.36-6.13-1.97-1.74-3.69-5.26-6.32-7.06-2-1.37-23.23-8.92-26.38-9.66-4.24-.99-9.31-.85-11.89-1.49-5.83-1.43-7.53-6.41-18.39-4.09,1.39-16.31,3.77-32.32,6.32-48.48.32-.51,2.84.34,3.34.56Z"/>
<path class="cls-10" d="M292.27,73.61c.12,1.48-.26,2.69-.37,4.09-8.45,12.05-20.11,23.48-23.03,38.45-.78,3.97-.68,9.81-1.11,12.45-.46,2.8-2.15,7.03-2.6,10.03-1.04,1.4-1.39,2.84-1.49,2.97-3.67,5.25-7.52,11.19-10.4,16.9-15.21,30.19-10.55,56.33-52.01,70.4-1.23-.65-3.53,1.04-10.77-7.43-3.21-3.76-6.45-8.86-8.54-13.37,1.62.97,4.16,3.98,5.02,3.34,1.74-9.09,1.76-2.73,6.32-3.34,2.5-3.23-.05-3.87-1.3-5.94-2.64-4.39,2.1-3.15,2.6-3.34.03,3.45,1.5.79,1.67.74,4.33-1.16,8.98-3.96,12.63-6.69,6.73-5.02,17.68-17.7,25.63-23.78,4.01-4.27,19.71-21.36,18.39-26.56l-.74-.19c3.48-7.31,4.3-11.86,6.32-19.32,2.69-9.94,5.55-26.2,7.43-32.32,2.35-1.99,4.37-4.29,6.69-6.32l1.3,1.49,18.39-12.26Z"/>
<path class="cls-4" d="M41.87,110.02c-.18-.14-.53.39-.56.37-.55-.43-4.15-4.85-8.36-5.94-2.24-1.65-11.23-6.08-11.89-7.8-.44-1.14-.26-5.21,0-6.69,1.22,5.09,2.85-2.83,3.72-4.27,1.87-3.12,9.6-11.01,13-11.7-.24,7.75,16.92,33.62,17.46,37.71,1.36,10.18-13.05-6.04-13.37-1.67Z"/>
<path class="cls-3" d="M138.09,5.62c-4.12,3.41-6.98,9.38-8.17,14.49-2.14-2.53.62-10.36,2.23-14.3-8.29-.43-12.82,5.93-13.56,6.13-2.06.54-10.85-3.47-15.98,7.43-11.22-4.46-12.99,5.88-13.75,6.32-1.24.71-6.77-4.18-11.15,7.43-14.8-4.69-13.82,9.48-14.86,9.66-.15.03-1.23-.79-2.97-.37-8.04,1.94-7.86,7.67-8.92,8.17-.42.2-4.98-.37-7.62,4.64-2.78,5.28-1.45,12.84-.37,18.39-.44-.19-.8-.33-1.11-.74-4.19-5.42-2.96-18.87,3.16-22.66,1.84-1.14,4.62-1.34,4.83-1.49.45-.32,1.88-4.74,4.46-6.32,2.5-1.53,7.15-1.59,7.43-1.86.76-.74.39-13.17,15.23-9.66,3.09-9.54,9.6-6.92,10.77-7.43.78-.34,3.22-10.24,13.75-5.94,5.34-10.29,14.57-7.25,15.6-7.43,2.58-.46,6.07-8.91,20.99-4.46Z"/>
<path class="cls-4" d="M172.27,3.02c-1.44-.18-2.78-1.44-2.6,0-.5-.21-3.02-1.07-3.34-.56-2.55,16.16-4.93,32.18-6.32,48.48-1.3,15.23-1.68,30.41-2.41,45.7-.1-1.79-.89-1.51-.93-1.67-.31-1.34-.09-24.12,0-27.49,0-.28.74-.09.74-.37.17-6.01-.75-11.21.74-16.9-.84-16.4,4.29-34.27,5.57-47.93.07-.71.47-.99.37-1.67l-2.6-.56c6.05-.18,6.14-.05,10.77,2.97Z"/>
<path class="cls-3" d="M172.27,3.02c7.34,4.79,4.8,8.12,13.19,0q3.34,4.83,6.69,9.66c9.23-8.65,13.32-.59,14.12-.37.38.1,3.87-2.04,7.43-.74.57.21,3.01,2.92,4.09,3.34,1.3.51,6.24.13,13,4.46,5.52,3.53,8.1,8.3,8.73,8.92l-.74,1.11c-2.82-3.15-5.41-6.32-9.1-8.54-7.34-4.42-10.73-3.28-12.26-3.72-1.97-.56-3.87-3.82-5.2-4.09-2.63-.53-5.64,1.94-5.94,1.86-.63-.17-2.73-6.85-11.15-2.6-4.37,2.2-1.46,6.61-9.29-5.2-7.89,8.05-9.67-1.31-16.16-4.09-.18-1.44,1.16-.18,2.6,0Z"/>
<path class="cls-4" d="M138.09,5.62c.91.27,2.11.2,2.97.74-.05.04.29.18-.74,1.11-10.82,9.81-8.69,28.92-6.32,41.98-.88.11-.83.41-1.49.74-1.97-10.67-5.13-19.3-2.6-30.09,1.2-5.11,4.05-11.08,8.17-14.49Z"/>
<path class="cls-3" d="M266.64,48.72c1.58,3.32.99,4.34,1.11,4.64.5,1.21,10.1,7.21,4.46,24.15-1.11,3.34-4.51,8.28-5.57,10.96-.74-6.91,6.85-11.59,5.2-24.33-.82-6.34-5.41-9.11-5.57-9.66-.13-.46,1.27-2.37-.74-6.13.08.04.55-.05,1.11.37Z"/>
<path class="cls-4" d="M292.27,73.61l-18.39,12.26-1.3-1.49c5.58-4.89,12.62-9.71,19.13-13,1.49,1.48.54,2,.56,2.23Z"/>
<path class="cls-2" d="M41.87,72.87c.32.41.67.55,1.11.74.04.11-.04.26,0,.37-.99.33-2.32.35-3.34.37-.09,0-.38-.67-1.86-.37-3.4.69-11.13,8.58-13,11.7-.87,1.44-2.5,9.37-3.72,4.27,1.27-7.09,12.82-18.74,20.81-17.09Z"/>
<path class="cls-1" d="M305.65,108.53c9.24,6.17,1.97,11.01,7.43,18.76-16.94,2.05-13.09-.92-2.79,3.16.41.16,4.26,2.08,4.46,2.23,5.49,4.09,1.7,14.27,1.11,8.54-21.73,1.37-19.81.23,0,3.34,1.31,1.43-5.01,2.48-5.02,2.79,5.25,1.21,6.37,4.68,8.54,9.1-3.98.84-7.88,1.43-11.89,2.04,9.98,1.03,14.16-2.68,10.22,6.5-26.05.94-25.08,2.72.19,2.97.05.28.24.48.37.74,5.16,10.5-6.68,12.21-14.12,13.93,9.75,1.08,15.4-4,14.86,4.09-1.17,3.96-18.5,2.29-4.46,5.94-10,2.49.25-2.51-.37,9.66-13.68-2.22-5.47-2,0,3.34-.94,1.18-22.56-3.43-25.63-3.34.62.25,1.26.68,1.86.93-.5.66-.14,1.01.37,1.49,1.01.94,16.99,10.5,16.35,11.33h-6.32c13.03,4.63,7.28,15.93-13.75,8.17,5.8,3.5,17.88,4.92,13.75,11.89-2.79,4.7-11.35.39-11.52,1.11,12.19,4.27-1.52,14.37-9.85,7.24-1.12.55,6.42,4.59,6.13,5.02-3.31,1.05-7.58.82-10.22-1.67.95,4.7,10.8,2.29.37,5.57-10.55-2.59-16.92-14.08-5.57,1.49-8.86-4.38-14.51-8.04-3.9,1.3-1.24,3.02-9.69-4.24-18.02-7.62-2.57-1.04-5.59-1.32-8.17-2.23-18.14-6.4-11.63-5.52-.19,2.23,4.33,2.93,8.36,6.55,12.26,10.03-21.09.14-18.67-1.74-32.14-5.57-17.03-4.85-30.51-6.41-39.57-24.89-1.17-1.78,1.98-3.27,3.34-4.09.09-.05.28.05.37,0,1.85-1.06,4.22-2.19,6.32-2.6,7.24,8.47,9.54,6.78,10.77,7.43,10.67,5.61,14.9,9.4,28.05,8.54,14.84-.97,21.3-6.96,27.31-19.88,6.4-13.77,7.82-24.04,11.15-37.52,2.71-10.98,11.75-23.32-4.09-38.45.1-.14.45-1.57,1.49-2.97,1.94-2.61,12.37-13.63,15.05-15.98,4.09-3.59,20.53-15.72,25.45-14.12Z"/>
<path class="cls-1" d="M306.02,104.82c-3.19,2.16-7.64,3.11-11.33,4.83-10.1,4.72-18.64,11.6-26.94,18.95.43-2.63.34-8.47,1.11-12.45,2.93-14.97,14.58-26.41,23.03-38.45-.1,1.29-1.17,4.85-.74,5.76.28.59,8.25,2.87,9.66,8.17.59,2.21.18,5.25.37,5.94.7,2.57,5.53,2.08,4.83,7.24Z"/>
<path class="cls-3" d="M313.08,210.7c1.08,2.25-5.87,5.87-5.94,6.87-.02.23.72.52.74.56,4.89,9.63-4.88,11.47-5.2,12.45-.06.2.78,2.13.37,4.09-1.3,6.17-6.82,5.84-7.24,6.13-.52.35.36,4.6-7.43,9.66-3.2,2.08-14.01,6.36-17.65,7.06-1.33.26-6.02.56-8.17.74-3.82.02-20.51-11.25-21.73-11.15-.94.08-1.02.75-.93,1.49-11.45-7.75-17.95-8.63.19-2.23,2.58.91,5.6,1.19,8.17,2.23,8.32,3.38,16.77,10.64,18.02,7.62-10.61-9.34-4.96-5.68,3.9-1.3-11.35-15.57-4.98-4.08,5.57-1.49,10.43-3.28.58-.88-.37-5.57,2.63,2.49,6.91,2.72,10.22,1.67.29-.42-7.25-4.47-6.13-5.02,8.32,7.13,22.03-2.98,9.85-7.24.16-.72,8.73,3.58,11.52-1.11,4.14-6.97-7.95-8.39-13.75-11.89,21.03,7.76,26.78-3.54,13.75-8.17h6.32c.64-.83-15.33-10.39-16.35-11.33,3.91.45,16.63,9.94,17.65,10.03,1.75.15,3.03-3.47,4.64-4.09Z"/>
<path class="cls-3" d="M307.88,218.13s-.76-.32-.74-.56c.07-1,7.03-4.62,5.94-6.87l.19-1.11c-.74-.93-19.6-4.96-22.85-6.32-.6-.25-1.24-.68-1.86-.93,3.08-.09,24.69,4.53,25.63,3.34-5.47-5.34-13.68-5.56,0-3.34.63-12.17-9.62-7.16.37-9.66-14.04-3.65,3.29-1.98,4.46-5.94.54-8.08-5.11-3.01-14.86-4.09,7.43-1.73,19.27-3.43,14.12-13.93,6.44,3.96-.28,10.32-.37,10.96-.21,1.42,1.97,3.83,2.23,4.83,1.74,6.8-3.3,7.51-4.46,12.63-2.17,9.6,4.09,11.42-7.8,20.99Z"/>
<path class="cls-3" d="M320.51,156.46c-.36.04-.77-.07-1.11,0-2.18-4.42-3.3-7.9-8.54-9.1,0-.31,6.32-1.36,5.02-2.79-19.81-3.12-21.73-1.97,0-3.34.59,5.72,4.37-4.45-1.11-8.54-.2-.15-4.05-2.07-4.46-2.23-10.31-4.08-14.15-1.11,2.79-3.16-5.46-7.76,1.81-12.59-7.43-18.76l.74-.74c9.3,5.86,4.27,9.79,5.94,14.3.46,1.24,8.54,7.63,7.06,20.43-.42,3.63-2.61,6.33-2.6,6.69.01.41,3.18,3.03,3.72,7.24Z"/>
<path class="cls-4" d="M306.39,107.79l-.74.74c-4.92-1.6-21.36,10.53-25.45,14.12-2.67,2.35-13.1,13.36-15.05,15.98.45-3,2.14-7.23,2.6-10.03,8.3-7.35,16.84-14.22,26.94-18.95,3.69-1.72,8.14-2.67,11.33-4.83-.29,2.16-1.15,2.29-1.11,2.41.08.25.68.05,1.49.56Z"/>
<path class="cls-4" d="M320.51,156.46c.47,3.67-.36,8.42-2.6,11.52-25.27-.26-26.23-2.03-.19-2.97,3.95-9.19-.24-5.47-10.22-6.5,4.01-.61,7.91-1.2,11.89-2.04.35-.07.76.04,1.11,0Z"/>
<path class="cls-4" d="M201.25,228.91c41.46-14.08,36.8-40.21,52.01-70.4,2.88-5.72,6.73-11.65,10.4-16.9,15.83,15.13,6.8,27.47,4.09,38.45-3.33,13.48-4.74,23.75-11.15,37.52-6.01,12.91-12.47,18.91-27.31,19.88-13.14.86-17.38-2.94-28.05-8.54Z"/>
<path class="cls-3" d="M313.08,210.7c-1.61.61-2.89,4.24-4.64,4.09-1.02-.09-13.74-9.58-17.65-10.03-.51-.48-.87-.83-.37-1.49,3.24,1.35,22.11,5.39,22.85,6.32l-.19,1.11Z"/>
<path class="cls-4" d="M262.55,258.26c-3.47.3-6.92.35-10.4.37-3.9-3.48-7.93-7.1-12.26-10.03-.09-.74-.01-1.4.93-1.49,1.22-.11,17.92,11.17,21.73,11.15Z"/>
<path class="cls-9" d="M180.82,207.36c.43.17.71.5,1.11.74,2.09,4.51,5.33,9.62,8.54,13.37-2.1.41-4.47,1.54-6.32,2.6-1.38-5.48-3.58-10.68-4.09-16.35l.74-.37Z"/>
<path class="cls-10" d="M177.1,212.93c1.99,2.37,4.53,8.14,6.69,11.15-1.36.82-4.52,2.31-3.34,4.09h-1.86c-.63-3.24-1.59-6.41-2.23-9.66-.98-4.96-2.72-9.69.74-5.57Z"/>
<path class="cls-13" d="M184.16,224.08c-.09.05-.28-.05-.37,0-2.16-3.01-4.7-8.78-6.69-11.15,4.28,1.15,2.08-3.63,2.97-5.2.5,5.66,2.71,10.87,4.09,16.35Z"/>
<path class="cls-4" d="M158.15,50.21c-1.49,5.69-.57,10.89-.74,16.9,0,.28-.74.09-.74.37-.09,3.38-.31,26.15,0,27.49.04.16.83-.12.93,1.67.74-15.29,1.12-30.47,2.41-45.7,10.86-2.32,12.56,2.65,18.39,4.09,2.58.64,7.65.5,11.89,1.49,3.15.74,24.38,8.29,26.38,9.66,2.62,1.8,4.35,5.32,6.32,7.06,1.39,1.23,6.33,3.58,8.36,6.13,2.92,3.68,2.62,8.3,5.2,11.89,4.9,6.81,21.84,8.96,21.92,31.76-2.02,7.46-2.84,12-6.32,19.32-1.61,3.38-3.44,7.23-5.94,10.03-.8.89-7.38,6.3-8.54,7.06-4.96,3.22-12.17,6.02-17.83,7.8,9.93-14.06,7.77-29.17-5.39-40.12-5.24-4.36-25.56-16.34-31.95-18.2-8.65-2.53-26.4-3.85-35.48-3.34-3.83-18.79-9.55-37.18-12.63-56.1,3.61.03,9.52,4.84,23.78.74Z"/>
<path class="cls-3" d="M266.64,48.72c-.56-.42-1.04-.33-1.11-.37-.72-.36-1.57-1.2-2.23-1.49l.74-.93c-7.5-4.52-12.84-19.22-23.78-14.3-.67-.6-.89-1.56-1.49-2.23l.74-1.11c2.11,2.06,3.47-.32,7.62,0,6.18.48,18.17,17.63,19.5,20.43Z"/>
<path class="cls-4" d="M263.29,46.86c-4.07-1.74-4.79-.99-5.02-1.11-.87-.46-3.77-6.21-14.86-12.63-1.07-.62-1.17.28-3.16-1.49,10.93-4.91,16.28,9.78,23.78,14.3l-.74.93Z"/>
<path class="cls-10" d="M160.76,219.99c.13.55.7,4.21.74,4.83.15,2.19-.24,4.17-.37,6.32-4.52,4.77-7.87,3.6-13.37,1.49,2.52-3.7,3.03-8.16,4.46-12.26.42-1.2,2.64-8.36,3.53-8.54,1.09-.23,4.27,5.15,5.02,8.17Z"/>
<path class="cls-10" d="M67.13,262.71c-.92,1.05-3.14,5.38-3.72,7.06-.18.16-1.07,1.05-1.11,1.11-7.86,4.7-13.66,2.22-20.25-3.34-5.66-4.79-8.17-11.69-9.85-10.77-2.02-4.94-1.61-5.75-1.86-6.69,11.89,6.48,22.74,12.81,36.78,12.63Z"/>
<path class="cls-4" d="M62.3,270.89c-.1.13-1.45,2.81-1.49,2.97-12.12,5.61-24.3-6.56-28.61-17.09,1.68-.92,4.18,5.99,9.85,10.77,6.58,5.57,12.38,8.04,20.25,3.34Z"/>
<path class="cls-4" d="M74.19,264.57c-2.55.65-8.91,3.46-10.77,5.2.58-1.68,2.8-6.01,3.72-7.06.6-.69,1.18-.24,1.3-.37,7.79-8.6,16.07-16.94,24.71-24.71l-1.86-.19c2.9-1.85,5.67-4.15,8.92-5.39-8.95,10.01-20.51,20.24-26.01,32.51Z"/>
<path class="cls-13" d="M176.36,218.5c.64,3.25,1.6,6.42,2.23,9.66.69,3.51,1.03,7.1,1.86,10.59-6.15.69-3.76-12.9-9.29-13.37.41,5.91,3.4,13.82-.56,12.45-1.25-5.3-2.15-10.7-3.53-15.98,5.27,1.14,2.1-3.7,3.53-4.09.95-.26,3.25,5.32,5.76.74Z"/>
<path class="cls-13" d="M162.98,221.1c-.04,1.53,1.43,3.48-1.49,3.72-.04-.61-.61-4.28-.74-4.83,1.56.48,1.49-.61,2.23,1.11Z"/>
<path class="cls-10" d="M167.07,221.85c1.38,5.27,2.28,10.67,3.53,15.98,3.95,1.38.97-6.54.56-12.45,5.53.48,3.14,14.06,9.29,13.37-.83-3.49-1.17-7.08-1.86-10.59h1.86c9.05,18.48,22.54,20.04,39.57,24.89,13.46,3.83,11.05,5.72,32.14,5.57,3.48-.02,6.93-.08,10.4-.37,2.15-.18,6.84-.49,8.17-.74,3.67,4.25,3.83,4.34,2.23,8.92l-.74-.74c-13.81,1.82-29.5,15.73-43.65,13.37-12.86-4.71-26.33-7.54-37.89-15.23-12.47-8.29-11.38-14.33-15.6-17.46-1.91-1.41-3.81-.19-5.76-2.04-1.21-1.15-3.5-6.64-4.27-6.5-1.76,13.97-13.42,35.81-27.12,40.87-7.96,2.93-42.8,6.11-53.5,5.57-7.36-3.98-11.31-1.54-13-1.86-.13-.03-1.69-1.42-2.23-1.49-1.39-.17-2.74,1.43-6.32,0l-.19,1.86c-1.68-3.3-2.86-4.94-1.86-8.92.04-.16,1.39-2.84,1.49-2.97.05-.06.94-.95,1.11-1.11,1.87-1.74,8.23-4.55,10.77-5.2.69-.18,5.33-.18,8.73-1.11,3.19-.87,11.52-5.43,12.26-5.57,6.12-1.2,31.61,5.19,50.34-1.11,11.52-3.88,14.91-14.6,15.6-25.63.14-2.14.52-4.12.37-6.32,2.92-.24,1.45-2.18,1.49-3.72.34-13.37,1.56-8.9,4.09.74Z"/>
<path class="cls-4" d="M272.21,265.69l.74.74c-3.86,11.06-22.9,30.5-33.81,36.41-2.25.7-16.95,8.97-23.78,11.52-8.57,3.19-21.02,6.53-30.09,7.06,1.9-1.24,1.58-.37,3.53-.74,6-1.15,27.7-6.59,31.95-9.29,1.32-.83,2.42-3.24,2.6-3.34.84-.47,14.48-6.04,13.19-7.62-10.49.08-29.89-1.03-39.57-3.16-7.26-1.6-9.19-3.79-14.86-6.32-2.4-1.07-3.5.17-6.69-3.34-3.36.07-14.29-.88-17.09,0-1.48.46-13.11,10.92-17.83,13.75-.77.46-3.28.9-5.2,1.86-.73.36-3.01,2.99-4.09,3.34-.62.2-3.98-.62-8.17,2.23-15.59,3.16-19.66-.14-10.22,5.2-16.54-5.04-24.98-10.53-38.82-20.43-.32-.23.13,1.93-6.13-4.09-.14-.13-.24-.24-.37-.37l-.19-1.49c2.01-1.65,19.09,3.67,33.07,2.97,4.77-.24,32.9-4.58,36.78-5.94,17.97-6.3,24.48-30.13,29.35-31.58,8.47-2.52,8.96,9.52,27.49,19.32,5.54,2.93,33.87,13.4,38.64,13.75,13.48.99,23.08-8.57,33.81-14.86,1.45-.85,2,2.07,5.76-5.57Z"/>
<path class="cls-9" d="M272.21,265.69c-3.76,7.64-4.31,4.72-5.76,5.57-10.73,6.29-20.33,15.85-33.81,14.86-4.76-.35-33.1-10.82-38.64-13.75-18.53-9.79-19.03-21.84-27.49-19.32-4.87,1.45-11.38,25.27-29.35,31.58-3.89,1.36-32.01,5.71-36.78,5.94-13.97.69-31.06-4.62-33.07-2.97l.19,1.49c-2.08-2.12-3.46-3.62-4.83-6.32l.19-1.86c3.58,1.43,4.93-.17,6.32,0,.54.06,2.1,1.46,2.23,1.49,1.69.32,5.64-2.12,13,1.86,10.7.54,45.54-2.64,53.5-5.57,13.7-5.05,25.36-26.9,27.12-40.87.78-.14,3.06,5.35,4.27,6.5,1.95,1.85,3.85.63,5.76,2.04,4.23,3.13,3.13,9.17,15.6,17.46,11.56,7.69,25.04,10.52,37.89,15.23,14.15,2.35,29.85-11.56,43.65-13.37Z"/>
<path class="cls-4" d="M112.83,313.98c12.63,3.85,32.49,6.18,33.44,7.62l-.74.93c-2.1.07-4.18-.34-6.32-.37-17.42-2.34-25.59-3.65-41.61-10.77-1.85-.82-3.74-1.73-5.57-2.6-8.85-5.33-17.72-11-24.15-19.32,6.26,6.02,5.81,3.85,6.13,4.09,13.84,9.91,22.28,15.4,38.82,20.43Z"/>
<path class="cls-3" d="M185.28,321.41c-.15.1-.91-.31-.74.74-4.94.15-6.94.74-7.8.74-5.8.03-8.86-.71-11.52-.74-1.44.27-6.15-2.95-6.5-2.97-.66-.05-3.27,2.22-8.36,2.97-1.38.2-3.41.32-4.83.37l.74-.93c-.95-1.44-20.8-3.77-33.44-7.62-9.45-5.34-5.37-2.04,10.22-5.2,4.2-2.85,7.56-2.03,8.17-2.23,1.08-.35,3.36-2.98,4.09-3.34,1.92-.96,4.43-1.4,5.2-1.86,4.72-2.82,16.35-13.28,17.83-13.75,2.8-.88,13.73.07,17.09,0,3.19,3.52,4.29,2.27,6.69,3.34,5.67,2.53,7.6,4.72,14.86,6.32,9.68,2.13,29.08,3.23,39.57,3.16,1.29,1.58-12.35,7.14-13.19,7.62-.18.1-1.28,2.51-2.6,3.34-4.25,2.69-25.95,8.14-31.95,9.29-1.94.37-1.63-.5-3.53.74Z"/>
<path class="cls-11" d="M194.56,198.81c2.96-1.13,4.74-2.95,7.43-4.83,1.31-.92,2.93-1.47,4.27-2.6,2.56-2.16,7.78-9.11,14.12-14.49,5.21-4.43,12.16-8.3,17.46-13.37,2.28-2.18,9.05-9.25,8.36-11.15,2.5-2.8,4.34-6.65,5.94-10.03l.74.19c1.32,5.2-14.38,22.29-18.39,26.56-7.96,6.08-18.9,18.75-25.63,23.78-3.65,2.73-8.3,5.52-12.63,6.69-.17.05-1.64,2.7-1.67-.74Z"/>
<path class="cls-9" d="M39.64,74.36c6.13,8.24,3.79,8.37,4.09,9.47.16.6,1.59.97,1.86,1.49,4.23,8.06,12.3,20.37,13.75,23.78,2.82,6.63,3.01,13.93,6.32,23.78.41,1.21,2.16,3.57,2.6,4.83,10.28,29.05,18.61,54.09,44.21,73.56-1.23,1.6-9.68-6.71-11.52-6.5-18.96-17.69-17.85-25.88-26.75-44.02-3.42-6.96-15.94-31.46-18.95-36.04-3.68-5.6-8.17-10.46-13.37-14.67.33-4.36,14.73,11.85,13.37,1.67-.54-4.09-17.7-29.96-17.46-37.71,1.48-.3,1.76.37,1.86.37Z"/>
<path class="cls-1" d="M129.92,20.11c-2.53,10.79.63,19.42,2.6,30.09.02.12-.02.25,0,.37-4.35,2.42-9.6,2.12-14.3,3.72-8.5,2.89-40,23.18-41.8,31.76-.5,2.4,4.55,28.91,1.11,41.8-2.08-7.45-4.65-17.35-8.54-23.96-5.58-9.47-22.7-21.04-26.01-29.91-.04-.11.04-.26,0-.37-1.08-5.55-2.41-13.11.37-18.39,2.64-5.02,7.2-4.44,7.62-4.64,1.05-.5.88-6.24,8.92-8.17,1.74-.42,2.82.4,2.97.37,1.04-.18.06-14.35,14.86-9.66,4.37-11.61,9.91-6.72,11.15-7.43.76-.44,2.53-10.77,13.75-6.32,5.12-10.9,13.92-6.89,15.98-7.43.74-.2,5.27-6.56,13.56-6.13-1.61,3.95-4.37,11.77-2.23,14.3Z"/>
<path class="cls-3" d="M161.5.05l2.6.56c.1.68-.3.96-.37,1.67-5.73-.25-11.54,1.05-16.9,2.97-1.98.71-5.13,3.07-6.5,2.23,1.03-.93.69-1.07.74-1.11,4.45-3.43,14.88-6.15,20.43-6.32Z"/>
<path class="cls-1" d="M163.73,2.28c-1.29,13.65-6.41,31.53-5.57,47.93-14.25,4.1-20.16-.71-23.78-.74-.12,0-.25-.01-.37,0-2.37-13.07-4.5-32.17,6.32-41.98,1.37.84,4.52-1.52,6.5-2.23,5.36-1.93,11.17-3.23,16.9-2.97Z"/>
<path class="cls-9" d="M134.01,49.46c.12-.01.25,0,.37,0,3.08,18.92,8.81,37.31,12.63,56.1-.88.05-1.68.29-2.6.37l1.49-1.3c-5.46-17.74-9.99-35.81-13.37-54.06-.02-.12.02-.25,0-.37.65-.33.6-.63,1.49-.74Z"/>
<path class="cls-10" d="M42.98,73.98c3.31,8.86,20.42,20.44,26.01,29.91,3.9,6.61,6.46,16.51,8.54,23.96.9,3.21,1.97,6.38,2.6,9.66-1.04-2.6-2.17-5.05-2.79-7.8-.96-.05.37,6.51.56,7.24.54,2.07,2.85,6.34,2.97,6.69,2.19,6.44,3.26,10.67,6.69,17.09,5.06,9.47,25.83,35.62,34.37,41.05,3.79,2.41,8.22,3.4,12.26,5.2,2.64.22,3.93-1.93,6.87-.37.56,2.01-1.19,11.34,5.02,5.57,2.81-.28,3.25,6.47,3.16,8.54-.18,3.9-2.03,7.36-3.72,10.77-2-.98-4.17-2.82-6.32-3.34-.1-.17.18-.71-.19-1.11-1.18-1.3-16.36-7.12-19.13-8.54-7.29-3.75-12.98-8.18-18.95-13.75,1.84-.21,10.29,8.11,11.52,6.5-25.6-19.47-33.93-44.52-44.21-73.56-.45-1.26-2.19-3.62-2.6-4.83-3.3-9.85-3.49-17.15-6.32-23.78-1.45-3.4-9.52-15.72-13.75-23.78-.27-.51-1.7-.89-1.86-1.49-.3-1.1,2.04-1.23-4.09-9.47,1.02-.02,2.35-.04,3.34-.37Z"/>
<path class="cls-10" d="M147.01,105.56c9.08-.5,26.83.82,35.48,3.34,6.39,1.87,26.71,13.84,31.95,18.2,13.16,10.95,15.32,26.06,5.39,40.12-11.21,3.53-10.58,2.11-11.15,2.23.27-2.2-1.03-1.76-1.11-1.86-.58-.73-1.04-1.41-1.49-2.23.76-.75,1.33-1.67,1.86-2.6.37-.65,1.42-2.91,1.49-3.72,4.15-3.46-1.4-.77-2.97,0-2.66-.83,3.29-11.07,2.23-13l-.74-.37c-.5-.97-1.88.45-2.41,0-.12-.1-.28-1.22-.93-2.97-.07-.2.64-.67.37-1.3-.56-1.29-1.41-.52-1.49-.56-1.91-.87-5.36-1.53-6.32-3.34,2.06-3.77,2.09-5.47-.74-2.6-2.05.85-5.57,6.28-7.43,4.09,1.75-2.96,5.98-10.46,1.11-6.32-2.13,1.82-4.4,6.78-7.43,4.83.41-.6,2.48-7.46,4.09-9.85.07-2.27-1.81-.03-2.23.56h-.37l-3.34,1.11-1.11-.74c3.68-7.89,1.28-8.38-2.23-.74-1.28.63-3.18,1.55-4.46.74,2.44-6.96,1.78-11.99-1.11-2.6-1.83.55-4.14,2.29-5.94,1.49,1.57-8.78-.46-9.82-1.49-2.97-2.98,2.12-5.18,5.63-5.94,3.72.16-7.67-3.41-11.52-2.23-1.86-1.31,1.58-3.4,1.03-5.2,1.11-1.77-10.51-4.71-9.43-2.23-1.11-.19,2.87-3.29.36-4.83.74-2.6-6.47-4.89-6.96-3.34-2.23.34,1.07-.8,2.18-1.86,2.6-.63-1.15-.99-2.46-2.04-3.34-1.96-.24-1.59,1.03-1.67,1.11-.9.86.21.58-1.86,1.49-.37.16-.7-.26-1.49.37-2.64,2.13,4.67,8.46-1.49,7.43-.72-1.22-2.98-5.32-4.09-3.72l-.74.56c3.06,5.34,1.02,4.76-.37,8.36-1-1.25-4.08-3.6-5.39-5.2-2.9.22-.05,1.88,2.04,4.83,2.4,3.39,4.73,5.98-3.72,4.83-.58-.46-1.61-1.36-1.86-1.49-.19-.1-1.01-2.11-3.72.56-1.18,3.4,8.97,13.96-.19,10.96-2.37,3.15-.58,2.43-.56,2.6.01.12-.02.25,0,.37.56,2.75,1.44,3.87,1.49,4.09.09.47-.07,1.01,0,1.49.05.33.39,2.12.37,2.23-.07.37-.38.42-.37.74.4,2.33-3.99.46-5.94,0-25.33-29.61,7.48-57.19,37.15-59.81.92-.08,1.72-.32,2.6-.37Z"/>
<path class="cls-13" d="M201.99,193.98c2.57-3.47,5.39-4.59,6.32-8.92,2.57-1.47,4.44-6.79,6.13-8.54,2.21-2.29,18.82-10.06,23.96-16.53l-.74-.56c1.17-.76,7.75-6.16,8.54-7.06.69,1.9-6.08,8.96-8.36,11.15-5.3,5.08-12.26,8.95-17.46,13.37-6.33,5.38-11.56,12.33-14.12,14.49-1.34,1.13-2.96,1.68-4.27,2.6Z"/>
<path class="cls-3" d="M5.83,199.56c-.09,1.02-1.29,1.28,1.3,2.23,3.82,1.41,24.23,1.76,7.8,2.97-5.33.39-10.34-1.08-8.92,1.49l8.73-.56c-20.63,5.59,1.24,5.18,9.1,3.16,24.06-8.55,22.2-8.53-1.11,5.2-7.8,4.59-12.93,4.29-10.59,9.1,1.75,2.41,21.72-5.57,25.26-6.32-7.12,3.95-14.23,7.97-22.11,10.22,12.32,3.47,24.96-6.42,36.22-10.96-7.87,5.14-16.07,10.32-25.08,13.19-3.59,1.14-12.12,1.78-5.2,2.6,7.36.87,15.78-.79,1.86,3.34-1.14.78-.06,2.29.37,3.34,7.68-.98,14.76-3.89,22.11-6.13l-15.6,8.17c0,1.45,14-1.82,14.12-1.11l-14.3,5.76,2.6,3.34c23.88-7.36,27.61-13.51,5.76,3.53.44.63.98.66,1.67.56,2.19-.31,22.07-10.7,26.19-12.63-6.46,5.5-15.17,10.29-22.29,15.05,6.5,7.53,39.49-12.51,47.55-17.65l1.86.19c-8.64,7.77-16.92,16.11-24.71,24.71-.12.13-.7-.32-1.3.37-14.04.18-24.89-6.15-36.78-12.63-.22-.83.38-1.08-.56-2.23-.28-.34-5.95-3.13-7.24-5.02-1.77-2.56-1.23-5.72-1.49-6.32-.38-.89-4.4-.96-5.57-2.97-.76-1.31-.42-4.08-.74-4.83-.17-.39-3.17-1.52-4.09-3.72-.81-1.94-.62-5.67-.74-5.94-.49-1.1-6.92-.54-5.94-21.73.83,1.03-.05,3.07,1.86,2.23Z"/>
<path class="cls-3" d="M18.09,151.26c2,.54-5.54,4.54-7.06,6.13,16.68-2.09,11.86-1.06-1.11,2.97,3.6,2.91,8.7.61,12.82.56,13.12-.16,21.74.6,33.99,6.13l-52.57,6.87-.56.93c10.27,3.06,14.78,2.25.56,3.16-2.3,3.59.69,1.66,6.13,2.41-3.28,1.58-9.53,1.01-6.87,6.13l22.11-.93c-3.54.94-7.04,2.27-10.59,3.16-3.44.86-9.77,1.23-11.7,2.97-.07-.02-1.33.13-1.49.37-4.36-8.62,1.55-14.84,1.11-17.28-.15-.82-3.05-2.12-2.23-7.06.19-1.16,1.9-3.34,1.86-3.72-.02-.18-1.81-1.54-2.23-2.97-1.15-3.88,1.85-5.42,2.6-6.5,1.97,2.76,6.25-3.61,15.23-3.34Z"/>
<path class="cls-3" d="M32.95,104.45c.75.55,1.34,1.38,1.49,1.49-7.83-3.33-11.35-9.39-16.53-4.46-4.72,4.49.24,2.92,6.5,9.47-.03,1.24-.93-.04-1.49.19-1.01-1.38-2.55-1.6-4.09-1.86-7.62-1.26-1.36,3.83-4.46,6.32-.62.5-12.23,5.23-1.49,10.96-4.31,1.21-7.44,5.25-7.8,9.66,6.84.12,16.56-1.78,3.53,2.41l13.19-1.67c-9.53,4.46-20.59.34-17.46,8.17.48.49,9.01-2.79,13.19-3.53,17.59-3.1,7.01.36-2.79,3.34-2.99.34-11.52,1.18-9.29,4.09l-1.86-.74c-.37-1.43-1.32-3.62-1.49-4.64-1.84-11.53,5.41-16.45,5.57-17.46.21-1.29-2.31-4.87-1.11-7.8.91-2.24,5.74-3.43,6.32-4.46,1.78-3.19-5.53-8.13,8.17-17.28.66,1.72,9.65,6.15,11.89,7.8Z"/>
<path class="cls-2" d="M3.23,191.75c1.18.38,2.24,1.58,3.53,1.86,7.26,1.53,15.85.25,23.22.19.13.82-14.96,3.41-16.16,3.53-7.03.7-7.6-2.23-7.99,2.23-1.9.84-1.03-1.2-1.86-2.23.02-.37.76-1.58.74-1.67-.05-.23-2.04-1.68-2.97-3.53.16-.24,1.41-.4,1.49-.37Z"/>
<path class="cls-4" d="M5.46,149.03c.51,2.02,5.88.02,8.92,0,14.6-.08,19.32.64,3.72,2.23-8.98-.27-13.27,6.11-15.23,3.34.4-.58,2.2-2.25,2.23-2.41.09-.48-1.25-3-1.49-3.9l1.86.74Z"/>
<path class="cls-1" d="M34.44,105.93c13.88,10.67,9.9,13.31,17.83,23.96.9,1.21,6.2,5.85,6.32,6.32.59,2.31-3.42,9.95,1.11,22.29.61,1.67,14.17,27.09,15.98,30.09,10.5,17.5,22.09,30.59,44.21,29.91,2.77,1.42,17.95,7.25,19.13,8.54.37.4.08.94.19,1.11,2.56,4.32,5.82,22.48,6.32,28.61-18.73,6.31-44.22-.09-50.34,1.11-.74.14-9.07,4.7-12.26,5.57-3.4.93-8.04.94-8.73,1.11,5.5-12.27,17.06-22.5,26.01-32.51-3.24,1.24-6.02,3.54-8.92,5.39-8.06,5.14-41.05,25.17-47.55,17.65,7.12-4.76,15.83-9.55,22.29-15.05.05-.04.61.19,1.11-.56-.69-.65-1.06.53-1.11.56-4.12,1.93-24.01,12.32-26.19,12.63-.69.1-1.24.07-1.67-.56,21.85-17.04,18.13-10.89-5.76-3.53l-2.6-3.34,14.3-5.76c-.12-.71-14.12,2.57-14.12,1.11l15.6-8.17c-7.35,2.24-14.42,5.15-22.11,6.13-.43-1.05-1.51-2.56-.37-3.34,13.92-4.13,5.5-2.47-1.86-3.34-6.92-.82,1.61-1.46,5.2-2.6,9.01-2.87,17.21-8.05,25.08-13.19-11.26,4.54-23.9,14.43-36.22,10.96,7.88-2.25,14.98-6.27,22.11-10.22-3.54.75-23.52,8.73-25.26,6.32-2.34-4.82,2.79-4.51,10.59-9.1,23.31-13.73,25.17-13.75,1.11-5.2-7.86,2.02-29.74,2.43-9.1-3.16l-8.73.56c-1.42-2.57,3.59-1.09,8.92-1.49,16.42-1.21-3.99-1.57-7.8-2.97-2.59-.95-1.39-1.21-1.3-2.23.39-4.46.96-1.53,7.99-2.23,1.2-.12,16.29-2.71,16.16-3.53-7.37.06-15.96,1.35-23.22-.19-1.29-.27-2.35-1.48-3.53-1.86,1.93-1.74,8.26-2.11,11.7-2.97,3.55-.89,7.04-2.22,10.59-3.16l-22.11.93c-2.66-5.12,3.6-4.55,6.87-6.13-5.44-.76-8.43,1.17-6.13-2.41,14.23-.91,9.71-.1-.56-3.16l.56-.93,52.57-6.87c-12.26-5.53-20.88-6.29-33.99-6.13-4.12.05-9.22,2.36-12.82-.56,12.98-4.03,17.8-5.06,1.11-2.97,1.51-1.59,9.05-5.59,7.06-6.13,15.6-1.59,10.89-2.3-3.72-2.23,1.18-2.61-8.58,1.38.37-4.09,9.8-2.99,20.38-6.44,2.79-3.34-4.18.74-12.71,4.02-13.19,3.53-3.13-7.83,7.93-3.71,17.46-8.17l-13.19,1.67c13.03-4.2,3.31-2.3-3.53-2.41.36-4.41,3.49-8.45,7.8-9.66-10.74-5.72.87-10.46,1.49-10.96l7.62,2.6c1.2-.65-.39-1.16-2.04-3.34,1.1-2.04,7.92,3.98,1.49-2.41-.28-1.17.77-1,1.49-1.3.55-.23,1.45,1.06,1.49-.19-6.27-6.56-11.22-4.99-6.5-9.47,5.18-4.93,8.7,1.12,16.53,4.46Z"/>
<path class="cls-4" d="M145.52,231.51c.66.32,1.81.95,2.23,1.11,5.5,2.12,8.86,3.29,13.37-1.49-.7,11.04-4.09,21.76-15.6,25.63-.5-6.12-3.76-24.29-6.32-28.61,2.14.52,4.32,2.37,6.32,3.34Z"/>
<path class="cls-4" d="M41.87,110.02c5.21,4.22,9.69,9.07,13.37,14.67,3.01,4.57,15.53,29.07,18.95,36.04,8.9,18.15,7.79,26.34,26.75,44.02,5.97,5.57,11.65,10,18.95,13.75-22.12.69-33.72-12.41-44.21-29.91-1.8-3-15.36-28.43-15.98-30.09-4.53-12.34-.52-19.98-1.11-22.29-.12-.46-5.41-5.1-6.32-6.32-7.93-10.66-3.95-13.29-17.83-23.96-.14-.11-.74-.94-1.49-1.49,4.21,1.1,7.81,5.51,8.36,5.94.03.02.38-.52.56-.37Z"/>
<path class="cls-3" d="M18.84,109.28c-2.62,3.1-.38,3.59,1.11,5.57,1.65,2.18,3.24,2.69,2.04,3.34l-7.62-2.6c3.1-2.49-3.16-7.58,4.46-6.32Z"/>
<path class="cls-3" d="M14.75,144.94c-8.95,5.47.81,1.48-.37,4.09-3.04.02-8.4,2.02-8.92,0-2.23-2.91,6.3-3.74,9.29-4.09Z"/>
<path class="cls-1" d="M22.92,111.14c-.71.3-1.76.13-1.49,1.3,6.43,6.39-.38.38-1.49,2.41-1.5-1.98-3.74-2.47-1.11-5.57,1.54.25,3.08.48,4.09,1.86Z"/>
<path class="cls-3" d="M66.02,240.05c.06-.03.43-1.2,1.11-.56-.5.75-1.07.52-1.11.56Z"/>
<path class="cls-4" d="M144.41,105.93c-29.67,2.62-62.48,30.2-37.15,59.81-3.84-.91-6.63-2.43-8.17-2.6-1.76-1.57-2.83-1.4-2.97-1.49-8.78-5.23-12.37-15.17-15.98-24.15-.63-3.28-1.7-6.45-2.6-9.66,3.44-12.89-1.62-39.39-1.11-41.8,1.8-8.58,33.3-28.88,41.8-31.76,4.7-1.6,9.96-1.3,14.3-3.72,3.39,18.25,7.91,36.32,13.37,54.06l-1.49,1.3Z"/>
<path class="cls-13" d="M80.14,137.51c3.6,8.98,7.19,18.92,15.98,24.15-.53-.02-.47,1.45-.37,1.67.41.99,11.79,14.14,13.75,16.53,3.26,3.99,7.27,7.45,8.17,8.73,1.12,1.59,4.03,9.88,5.94,7.99-.3,2.46.69,1.75.74,1.86.07.15.23,2.22,1.3,2.97.36.25,2.18.27,2.41.37.09.04,1.03,1.49,1.3,1.49.47,0,4.94-5.7,6.87-6.32-10.45,11.47-4.66,3.19-2.04,8.92.38-.29.1-1.05.19-1.11.05-.03.6.03,1.11-.37.32,3.35,4.76-.67,5.57,2.23-2.95-1.56-4.23.59-6.87.37-4.04-1.8-8.47-2.79-12.26-5.2-8.54-5.43-29.3-31.58-34.37-41.05-3.43-6.42-4.49-10.65-6.69-17.09-.12-.35-2.43-4.61-2.97-6.69-.19-.73-1.52-7.3-.56-7.24.62,2.75,1.74,5.2,2.79,7.8Z"/>
<path class="cls-13" d="M147.75,232.62c-.42-.16-1.57-.79-2.23-1.11,1.68-3.42,3.54-6.87,3.72-10.77,1.37.68,2.03.94,2.97-.37-1.42,4.1-1.94,8.56-4.46,12.26Z"/>
<path class="cls-12" d="M165.21,322.16c-4.9-.06-9.94,1.03-14.86,0,5.09-.75,7.69-3.02,8.36-2.97.36.03,5.06,3.24,6.5,2.97Z"/>
<path class="cls-14" d="M181.93,208.1c-.4-.24-.69-.57-1.11-.74,3.68-1.08,2.69,3.44,6.32,1.3-.71-6.76,4.32-1.5,4.46-3.53.49.08.44-.94.37-1.86-.03-.39-.89-.88,0-1.11,1.25,2.08,3.8,2.71,1.3,5.94-4.55.62-4.58-5.75-6.32,3.34-.85.64-3.4-2.37-5.02-3.34Z"/>
<path class="cls-7" d="M141.44,135.28c-.37.48-2.2.32-3.34,2.6q-2.41-5.57-4.83-11.15c2.06-.9.95-.63,1.86-1.49,2.47,2.45,3.49,8.59,6.32,10.03Z"/>
<path class="cls-8" d="M197.16,137.51c-.49.89-5.7,8.44-6.69,6.87-.4-.52,5.16-8.68,5.94-9.47,2.83-2.87,2.8-1.17.74,2.6Z"/>
<path class="cls-8" d="M188.99,139c-7.59,12.85-1.94-2.63,1.11-6.32,4.86-4.14.63,3.36-1.11,6.32Z"/>
<path class="cls-8" d="M179.7,128.6c-3.55,7.61-6.61,8.76-2.23-.74,3.51-7.63,5.91-7.15,2.23.74Z"/>
<path class="cls-8" d="M182.67,137.51c-3.76,5.54-.62-5.87,1.86-9.29.42-.58,2.3-2.82,2.23-.56-1.61,2.38-3.68,9.25-4.09,9.85Z"/>
<path class="cls-8" d="M138.84,127.48c.52.95,3.15,7.09,2.6,7.8-2.82-1.44-3.84-7.59-6.32-10.03.09-.08-.29-1.36,1.67-1.11,1.05.88,1.42,2.19,2.04,3.34Z"/>
<path class="cls-8" d="m173.02 128.6c-2.64 7.54-3.39 4.79-1.11-2.6 2.89-9.39 3.55-4.36 1.11 2.6z"/>
<path class="cls-8" d="M125.09,139.74c3.8,4.74,1.17,4.64-3.34-.37-2.09-2.95-4.94-4.61-2.04-4.83,1.31,1.61,4.38,3.95,5.39,5.2Z"/>
<path class="cls-8" d="M151.1,127.48c1.28,7.57-1.19,2.38-2.23-1.11-2.48-8.32.46-9.39,2.23,1.11Z"/>
<path class="cls-8" d="m165.96 127.48c-1.74 9.76-2.28 2.35-1.49-2.97 1.02-6.85 3.05-5.8 1.49 2.97z"/>
<path class="cls-8" d="M204.59,142.71c-.51.34-.71,1.05-1.11,1.49-6.49,6.99-8.7,5.35,0-3.34.07.03.93-.73,1.49.56.27.63-.45,1.1-.37,1.3Z"/>
<path class="cls-8" d="M158.53,128.23c-.09,4.31-1.47,4.34-2.23-1.86-1.18-9.66,2.39-5.81,2.23,1.86Z"/>
<path class="cls-7" d="M207.94,145.69c-.77.16-1.48.5-2.23.74-.75.25-.47-1.07-2.04,1.11l-.19-3.34c.4-.43.6-1.15,1.11-1.49.65,1.76.81,2.87.93,2.97.54.45,1.92-.97,2.41,0Z"/>
<path class="cls-12" d="M165.96,127.48c1.81.8,4.12-.93,5.94-1.49-2.28,7.39-1.53,10.14,1.11,2.6,1.28.8,3.18-.12,4.46-.74-4.38,9.51-1.32,8.36,2.23.74l1.11.74c-1.83,1.59,1.62,3.11,3.34-1.11h.37c-2.48,3.41-5.61,14.82-1.86,9.29,3.03,1.95,5.3-3.01,7.43-4.83-3.05,3.69-8.71,19.17-1.11,6.32,1.86,2.19,5.38-3.23,7.43-4.09-.79.8-6.34,8.95-5.94,9.47.98,1.57,6.2-5.98,6.69-6.87.95,1.81,4.41,2.48,6.32,3.34-8.7,8.7-6.49,10.33,0,3.34l.19,3.34c1.57-2.18,1.29-.87,2.04-1.11l-8.92,7.62c.12,1.77,11.78-6.33,11.89-7.99,1.06,1.93-4.89,12.18-2.23,13-16.83,8.2-1.51,3.74,2.97,0-.07.8-1.11,3.06-1.49,3.72-3.2,1.26-6.6,4.79-10.77,5.76-.07,1.79,6.99-1.26,8.92-3.16.44.82.91,1.5,1.49,2.23-.51,1.92-10.79,3.28-10.03,4.27,4.53,1.08,8.81-1.94,11.15-2.41.57-.12-.07,1.31,11.15-2.23,5.67-1.79,12.88-4.58,17.83-7.8l.74.56c-5.14,6.48-21.76,14.25-23.96,16.53-1.69,1.75-3.56,7.08-6.13,8.54.12-.55.91-.77.74-1.3-.35-1.15-14-1.96-16.35-2.23,1.91,2.1,13.68,4.03,15.6,3.53-.93,4.33-3.75,5.44-6.32,8.92-2.69,1.88-4.47,3.7-7.43,4.83-.5.19-5.24-1.05-2.6,3.34-.89.24-.03.72,0,1.11-4.57-2.83-7.98-7.01-11.7-10.77-3.07-.41,9.27,13.1,11.33,12.63-.13,2.02-5.16-3.23-4.46,3.53-3.63,2.14-2.64-2.38-6.32-1.3l-.74.37c-.89,1.58,1.3,6.35-2.97,5.2-3.47-4.12-1.72.61-.74,5.57-2.51,4.58-4.81-1-5.76-.74-1.43.38,1.74,5.22-3.53,4.09-2.53-9.64-3.75-14.11-4.09-.74-.73-1.72-.67-.63-2.23-1.11-.74-3.02-3.92-8.4-5.02-8.17-.89.19-3.11,7.35-3.53,8.54-.94,1.32-1.6,1.05-2.97.37.09-2.07-.35-8.83-3.16-8.54-6.21,5.77-4.45-3.56-5.02-5.57-.81-2.9-5.26,1.12-5.57-2.23,1.13-.88,13.23-10.42,9.85-10.4-3.23,3.1-12.46,8.57-10.96,10.77-.09.06.19.82-.19,1.11-2.61-5.73-8.4,2.55,2.04-8.92,2.66-2.92,6.03-5.67,4.27-5.94l-12.45,10.77c-.24-.11-2.06-.12-2.41-.37-1.07-.75-1.23-2.82-1.3-2.97,12.46-8.45,12.37-14.4-.74-1.86-1.91,1.89-4.82-6.4-5.94-7.99-.91-1.28-4.91-4.74-8.17-8.73-2.7-6.06-10.27-12.14-11.52-14.67-1.47-2.98-.87-2.27,1.11-2.04,1.54.18,4.33,1.69,8.17,2.6,1.95.46,6.35,2.33,5.94,0,9.99,4.18,12.8.24.37-.74.02-.11-.32-1.9-.37-2.23,13.42,3.96,12.02.05,0-1.49-.04-.21-.93-1.33-1.49-4.09,14.06,5.83,14.77,3.67.56-1.86l-.56,1.49c-.02-.17-1.81.55.56-2.6,9.16,3-.99-7.56.19-10.96,2.7-2.66,3.52-.66,3.72-.56-5.15-.2,6.31,8.23,6.87,7.8,1.27-.69-4.08-5.57-5.02-6.32,8.45,1.15,6.12-1.44,3.72-4.83,4.51,5.01,7.14,5.11,3.34.37,1.39-3.6,3.43-3.02.37-8.36l.74-.56c4.63,12.23,9.56,12.94,4.09,3.72,6.15,1.03-1.16-5.3,1.49-7.43-.45,1.91,3.64,6.48,4.83,10.22l1.49.56c1.14-2.28,2.98-2.13,3.34-2.6.55-.71-2.08-6.85-2.6-7.8,1.05-.42,2.2-1.53,1.86-2.6,2.26,6.92,7.46,12.48,3.34,2.23,1.53-.38,4.64,2.13,4.83-.74,1.04,3.49,3.51,8.69,2.23,1.11,1.8-.08,3.89.47,5.2-1.11.76,6.19,2.14,6.16,2.23,1.86.77,1.92,2.96-1.6,5.94-3.72-.79,5.32-.26,12.74,1.49,2.97Z"/>
<path class="cls-14" d="M99.08,163.15c-1.98-.22-2.58-.93-1.11,2.04,1.25,2.54,8.81,8.62,11.52,14.67-1.96-2.4-13.33-15.54-13.75-16.53-.09-.23-.16-1.69.37-1.67.14.09,1.21-.08,2.97,1.49Z"/>
<path class="cls-8" d="M198.09,176.15l13.37.37c4,3.46-17.53,2.9-13.37-.37Z"/>
<path class="cls-8" d="M191.41,183.58c1.9.4,12.68,3.42,12.45,5.39-.34,2.94-10.85-3.57-13.75-4.46l1.3-.93Z"/>
<path class="cls-8" d="M126.39,178.01c1.56,0,1.69.02,2.79,1.3-.2.89-8.9,2.07-10.96,2.79-.67.23-1.13,2.73-3.16.93-1.49-2.46,10.68-5.01,11.33-5.02Z"/>
<path class="cls-8" d="M208.31,185.07c-1.92.5-13.69-1.43-15.6-3.53,2.35.27,15.99,1.08,16.35,2.23.16.53-.62.75-.74,1.3Z"/>
<path class="cls-8" d="M191.96,203.27c.07.92.12,1.93-.37,1.86-2.06.47-14.4-13.04-11.33-12.63,3.73,3.76,7.13,7.94,11.7,10.77Z"/>
<path class="cls-8" d="M136.23,196.96c-1.93.62-6.41,6.32-6.87,6.32-.27,0-1.21-1.45-1.3-1.49l12.45-10.77c1.76.27-1.61,3.03-4.27,5.94Z"/>
<path class="cls-8" d="M123.05,173.92c9.38.9-11.3,4.32-12.07,2.79-2.08-1.88,11.41-2.85,12.07-2.79Z"/>
<path class="cls-8" d="M124.35,198.44c-.05-.11-1.04.6-.74-1.86,13.11-12.55,13.21-6.6.74,1.86Z"/>
<path class="cls-8" d="M135.49,204.39c-.51.4-1.07.34-1.11.37-1.5-2.21,7.73-7.67,10.96-10.77,3.38-.01-8.71,9.52-9.85,10.4Z"/>
<path class="cls-8" d="M186.58,189.53c12.86,4.92,9.3,11.59-.56,1.3l.56-1.3Z"/>
<path class="cls-8" d="M149.8,197.7l.93.93c-9.71,19.26-12.37,15.67-.93-.93Z"/>
<path class="cls-8" d="M172.83,196.58c8.03,14.04,5.2,20.39-.93.93l.93-.93Z"/>
<path class="cls-8" d="M128.99,185.07l1.3.93c-11.91,9.22-15.58,4.4-1.3-.93Z"/>
<path class="cls-8" d="M207.94,145.69l.74.37c-.11,1.65-11.77,9.76-11.89,7.99l8.92-7.62c.75-.25,1.46-.58,2.23-.74Z"/>
<path class="cls-8" d="M176.92,194.73l8.36,10.96c-.5,5.98-9.22-10.31-8.36-10.96Z"/>
<path class="cls-8" d="M167.26,200.67c.96-.04,5.19,14.77,1.3,11.33.11-1.75-3.5-11.24-1.3-11.33Z"/>
<path class="cls-8" d="M155.37,201.41c2.14-.02-2,7.33-2.04,10.59-5.01,3.26,1.13-10.58,2.04-10.59Z"/>
<path class="cls-8" d="M130.29,134.54c5.47,9.23.55,8.51-4.09-3.72,1.11-1.61,3.36,2.49,4.09,3.72Z"/>
<path class="cls-8" d="M133.26,126.74q2.41,5.57,4.83,11.15l-1.49-.56c-1.19-3.74-5.28-8.31-4.83-10.22.79-.64,1.12-.21,1.49-.37Z"/>
<path class="cls-8" d="M159.83,204.01c2.14-.45,1.96,8.92,1.11,9.29-2.44,1.07-2.73-8.95-1.11-9.29Z"/>
<path class="cls-8" d="M144.04,127.11c4.11,10.25-1.08,4.69-3.34-2.23-1.55-4.73.75-4.24,3.34,2.23Z"/>
<path class="cls-8" d="M116.17,142.71c.25.13,1.28,1.02,1.86,1.49.94.75,6.29,5.63,5.02,6.32-.56.43-12.02-8-6.87-7.8Z"/>
<path class="cls-8" d="M111.71,157.2c-.02-.12.01-.25,0-.37l.56-1.49c14.21,5.52,13.5,7.69-.56,1.86Z"/>
<path class="cls-8" d="M208.68,169.46c-2.33.47-6.61,3.5-11.15,2.41-.76-.99,9.52-2.36,10.03-4.27.08.1,1.39-.34,1.11,1.86Z"/>
<path class="cls-8" d="M209.42,159.06c-4.48,3.74-19.81,8.2-2.97,0,1.57-.77,7.12-3.46,2.97,0Z"/>
<path class="cls-8" d="M113.2,162.78c-.07-.47.09-1.02,0-1.49,12.02,1.54,13.42,5.44,0,1.49Z"/>
<path class="cls-8" d="M207.94,162.78c-.53.93-1.1,1.85-1.86,2.6-1.93,1.89-8.99,4.95-8.92,3.16,4.17-.96,7.58-4.5,10.77-5.76Z"/>
<path class="cls-8" d="M113.2,165.75c0-.32.3-.37.37-.74,12.43.98,9.62,4.93-.37.74Z"/>
<path class="cls-7" d="m184.16 128.23c-1.72 4.23-5.18 2.71-3.34 1.11l3.34-1.11z"/>
<path class="cls-5" d="M154.25,143.83c12.92-1.65,30.64,5.91,32.51,20.25,4.15,31.83-43.55,35.09-53.87,11.89-4.61-10.36.69-22.39,10.22-28.05.54-.32,10.3-3.98,11.15-4.09Z"/>
<path class="cls-6" d="M159.83,171.69c1.18,9.02,4.48,9.34,4.27,9.85-.23.58-2.38-.73-.56,2.79-5.59-2.35-2.14-2.95-2.04-3.53.08-.47-2.88-4.18-1.67-9.1Z"/>
<path class="cls-6" d="M166.51,183.21c1.73-.3,4.1,1.32,3.9,2.04-2.12,2.27-8.78-1.21-3.9-2.04Z"/>
<path class="cls-6" d="M178.4,178.75c.66-.14,3.09.66,3.16.93-3.03,5.61-6.89-.16-3.16-.93Z"/>
<path class="cls-6" d="m169.67 181.72c-6.29-6.33-5.01-15.99-3.72-7.62 1.26 2.81 4.35 5.93 3.72 7.62z"/>
<path class="cls-6" d="M169.86,170.21l5.02,7.62c.95,4.3-6.43-6.81-5.02-7.62Z"/>
<path class="cls-6" d="m175.43 179.49h0.37l0.19 0.19v0.37l-0.19 0.19-0.57-0.57 0.19-0.19z"/>
<path class="cls-6" d="M169.67,181.72l.56.74-.56-.74Z"/>
<path class="cls-6" d="M157.97,154.6c10.98-1.8,10.2,11.24-.37,9.29-5.99-1.11-6-8.24.37-9.29Z"/>
<path class="cls-6" d="M158.71,155.72c4.67-.44,6.1,4.3,3.34,7.43-6.32.61-9.67-6.83-3.34-7.43Z"/>
<path class="cls-6" d="M158.34,157.58c3.11-.45,1.98,4.62.56,3.16l-.56-3.16Z"/>
</svg>
